{
	"patcher" : 	{
		"fileversion" : 1,
		"appversion" : 		{
			"major" : 8,
			"minor" : 1,
			"revision" : 6,
			"architecture" : "x64",
			"modernui" : 1
		}
,
		"classnamespace" : "box",
		"rect" : [ 0.0, -26.0, 640.0, 506.0 ],
		"bglocked" : 0,
		"openinpresentation" : 0,
		"default_fontsize" : 12.0,
		"default_fontface" : 0,
		"default_fontname" : "Arial",
		"gridonopen" : 1,
		"gridsize" : [ 15.0, 15.0 ],
		"gridsnaponopen" : 1,
		"objectsnaponopen" : 1,
		"statusbarvisible" : 2,
		"toolbarvisible" : 1,
		"lefttoolbarpinned" : 0,
		"toptoolbarpinned" : 0,
		"righttoolbarpinned" : 0,
		"bottomtoolbarpinned" : 0,
		"toolbars_unpinned_last_save" : 0,
		"tallnewobj" : 0,
		"boxanimatetime" : 200,
		"enablehscroll" : 1,
		"enablevscroll" : 1,
		"devicewidth" : 0.0,
		"description" : "",
		"digest" : "",
		"tags" : "",
		"style" : "",
		"subpatcher_template" : "",
		"assistshowspatchername" : 0,
		"boxes" : [ 			{
				"box" : 				{
					"annotation" : "## Record VIZZIE video ##",
					"bgmode" : 0,
					"border" : 0,
					"clickthrough" : 0,
					"enablehscroll" : 0,
					"enablevscroll" : 0,
					"id" : "obj-67",
					"lockeddragscroll" : 0,
					"maxclass" : "bpatcher",
					"name" : "vz.recordr.maxpat",
					"numinlets" : 3,
					"numoutlets" : 0,
					"offset" : [ 0.0, 0.0 ],
					"patching_rect" : [ 361.0, 16.499993920326233, 315.0, 149.0 ],
					"varname" : "recordr",
					"viewvisibility" : 1
				}

			}
, 			{
				"box" : 				{
					"id" : "obj-57",
					"maxclass" : "jit.pwindow",
					"numinlets" : 1,
					"numoutlets" : 2,
					"outlettype" : [ "jit_matrix", "" ],
					"patching_rect" : [ 48.0, 601.0, 423.0, 293.0 ]
				}

			}
, 			{
				"box" : 				{
					"id" : "obj-50",
					"maxclass" : "newobj",
					"numinlets" : 1,
					"numoutlets" : 2,
					"outlettype" : [ "", "" ],
					"patching_rect" : [ 1343.000017166137695, 141.999994874000549, 267.0, 22.0 ],
					"text" : "jit.time.sin @freq 10 @scale 128. @speed 0.001"
				}

			}
, 			{
				"box" : 				{
					"attr" : "freq",
					"id" : "obj-52",
					"maxclass" : "attrui",
					"numinlets" : 1,
					"numoutlets" : 1,
					"outlettype" : [ "" ],
					"patching_rect" : [ 1367.000017881393433, 79.999993920326233, 150.0, 22.0 ]
				}

			}
, 			{
				"box" : 				{
					"annotation" : "## Smear a video ##",
					"bgmode" : 1,
					"border" : 0,
					"clickthrough" : 0,
					"enablehscroll" : 0,
					"enablevscroll" : 0,
					"id" : "obj-43",
					"lockeddragscroll" : 0,
					"maxclass" : "bpatcher",
					"name" : "vz.slidr.maxpat",
					"numinlets" : 3,
					"numoutlets" : 1,
					"offset" : [ 0.0, 0.0 ],
					"outlettype" : [ "jit_gl_texture" ],
					"patching_rect" : [ 624.0, 594.0, 138.0, 130.0 ],
					"prototypename" : "pixl",
					"varname" : "slidr",
					"viewvisibility" : 1
				}

			}
, 			{
				"box" : 				{
					"id" : "obj-58",
					"maxclass" : "jit.pwindow",
					"numinlets" : 1,
					"numoutlets" : 2,
					"outlettype" : [ "jit_matrix", "" ],
					"patching_rect" : [ 703.0, 763.0, 301.0, 156.0 ]
				}

			}
, 			{
				"box" : 				{
					"annotation" : "## A Basis Function-based video generator ##",
					"bgmode" : 1,
					"border" : 0,
					"clickthrough" : 0,
					"enablehscroll" : 0,
					"enablevscroll" : 0,
					"id" : "obj-20",
					"lockeddragscroll" : 0,
					"maxclass" : "bpatcher",
					"name" : "vz.bfgener8r.maxpat",
					"numinlets" : 12,
					"numoutlets" : 1,
					"offset" : [ 0.0, 0.0 ],
					"outlettype" : [ "jit_gl_texture" ],
					"patching_rect" : [ 827.0, 479.0, 268.0, 234.0 ],
					"prototypename" : "pixl",
					"varname" : "bfgener8r",
					"viewvisibility" : 1
				}

			}
, 			{
				"box" : 				{
					"id" : "obj-40",
					"maxclass" : "newobj",
					"numinlets" : 1,
					"numoutlets" : 2,
					"outlettype" : [ "", "" ],
					"patching_rect" : [ 767.0, 314.0, 62.0, 22.0 ],
					"text" : "jit.time.sin"
				}

			}
, 			{
				"box" : 				{
					"id" : "obj-36",
					"maxclass" : "newobj",
					"numinlets" : 1,
					"numoutlets" : 2,
					"outlettype" : [ "jit_matrix", "" ],
					"patching_rect" : [ 1020.333331823348999, 176.333333492279053, 215.0, 22.0 ],
					"text" : "jit.mo.perlin @speed 0.04 @scale 1.45"
				}

			}
, 			{
				"box" : 				{
					"id" : "obj-28",
					"maxclass" : "newobj",
					"numinlets" : 1,
					"numoutlets" : 2,
					"outlettype" : [ "jit_matrix", "" ],
					"patching_rect" : [ 904.513493537715931, 109.999993920326233, 245.0, 22.0 ],
					"text" : "jit.mo.tri @scale 1.052 @speed 0.1 @freq 3."
				}

			}
, 			{
				"box" : 				{
					"id" : "obj-8",
					"maxclass" : "newobj",
					"numinlets" : 1,
					"numoutlets" : 2,
					"outlettype" : [ "jit_matrix", "" ],
					"patching_rect" : [ 682.013493537715931, 156.000008642673492, 240.0, 22.0 ],
					"text" : "jit.mo.sin @speed 0.3 @freq 20. @ scale 1."
				}

			}
, 			{
				"box" : 				{
					"id" : "obj-7",
					"maxclass" : "newobj",
					"numinlets" : 3,
					"numoutlets" : 2,
					"outlettype" : [ "jit_matrix", "" ],
					"patching_rect" : [ 918.0, 207.432441413402557, 86.0, 22.0 ],
					"text" : "jit.mo.join 3 30"
				}

			}
, 			{
				"box" : 				{
					"id" : "obj-4",
					"maxclass" : "newobj",
					"numinlets" : 2,
					"numoutlets" : 2,
					"outlettype" : [ "", "" ],
					"patching_rect" : [ 784.513493537715931, 249.0, 367.0, 22.0 ],
					"text" : "jit.gl.multiple drawing @glparams position rotate @scale 0.4 0.4 0.4"
				}

			}
, 			{
				"box" : 				{
					"attr" : "speed",
					"id" : "obj-14",
					"maxclass" : "attrui",
					"numinlets" : 1,
					"numoutlets" : 1,
					"outlettype" : [ "" ],
					"patching_rect" : [ 949.846827924251556, 67.945940255817391, 150.0, 22.0 ]
				}

			}
, 			{
				"box" : 				{
					"attr" : "speed",
					"id" : "obj-15",
					"maxclass" : "attrui",
					"numinlets" : 1,
					"numoutlets" : 1,
					"outlettype" : [ "" ],
					"patching_rect" : [ 1078.063076675125103, 146.945955216583229, 150.0, 22.0 ]
				}

			}
, 			{
				"box" : 				{
					"attr" : "scale",
					"id" : "obj-17",
					"maxclass" : "attrui",
					"numinlets" : 1,
					"numoutlets" : 1,
					"outlettype" : [ "" ],
					"patching_rect" : [ 898.351351916790009, 14.459458112415291, 150.0, 22.0 ]
				}

			}
, 			{
				"box" : 				{
					"id" : "obj-18",
					"maxclass" : "message",
					"numinlets" : 2,
					"numoutlets" : 1,
					"outlettype" : [ "" ],
					"patching_rect" : [ 539.0, 249.0, 43.0, 22.0 ],
					"text" : "myTex"
				}

			}
, 			{
				"box" : 				{
					"id" : "obj-11",
					"maxclass" : "newobj",
					"numinlets" : 1,
					"numoutlets" : 2,
					"outlettype" : [ "jit_gl_texture", "" ],
					"patching_rect" : [ 430.0, 479.0, 292.0, 22.0 ],
					"text" : "jit.gl.texture drawing @name myTex @apply combine"
				}

			}
, 			{
				"box" : 				{
					"id" : "obj-9",
					"maxclass" : "message",
					"numinlets" : 2,
					"numoutlets" : 1,
					"outlettype" : [ "" ],
					"patching_rect" : [ 304.0, 284.0, 33.0, 22.0 ],
					"text" : "read"
				}

			}
, 			{
				"box" : 				{
					"id" : "obj-6",
					"maxclass" : "newobj",
					"numinlets" : 1,
					"numoutlets" : 2,
					"outlettype" : [ "jit_matrix", "" ],
					"patching_rect" : [ 239.0, 331.59375, 493.0, 22.0 ],
					"text" : "jit.gl.model drawing @smooth_shading 1 @lighting_enable 0 @texture myTex @tex_map 2"
				}

			}
, 			{
				"box" : 				{
					"id" : "obj-3",
					"maxclass" : "toggle",
					"numinlets" : 1,
					"numoutlets" : 1,
					"outlettype" : [ "int" ],
					"parameter_enable" : 0,
					"patching_rect" : [ 313.0, 170.0, 24.0, 24.0 ]
				}

			}
, 			{
				"box" : 				{
					"id" : "obj-1",
					"maxclass" : "newobj",
					"numinlets" : 1,
					"numoutlets" : 3,
					"outlettype" : [ "jit_gl_texture", "bang", "" ],
					"patching_rect" : [ 209.0, 220.0, 423.0, 22.0 ],
					"text" : "jit.world drawing @dim 1920 1080 @erase_color 0. 0. 0. 0. @output_texture 1"
				}

			}
, 			{
				"box" : 				{
					"attr" : "lighting_enable",
					"id" : "obj-10",
					"maxclass" : "attrui",
					"numinlets" : 1,
					"numoutlets" : 1,
					"outlettype" : [ "" ],
					"patching_rect" : [ 390.0, 293.0, 150.0, 22.0 ]
				}

			}
, 			{
				"box" : 				{
					"attr" : "texture",
					"id" : "obj-12",
					"maxclass" : "attrui",
					"numinlets" : 1,
					"numoutlets" : 1,
					"outlettype" : [ "" ],
					"patching_rect" : [ 543.0, 293.0, 150.0, 22.0 ]
				}

			}
, 			{
				"box" : 				{
					"attr" : "apply",
					"id" : "obj-2",
					"maxclass" : "attrui",
					"numinlets" : 1,
					"numoutlets" : 1,
					"outlettype" : [ "" ],
					"patching_rect" : [ 430.0, 442.1875, 150.0, 22.0 ]
				}

			}
, 			{
				"box" : 				{
					"attr" : "erase_color",
					"id" : "obj-24",
					"maxclass" : "attrui",
					"numinlets" : 1,
					"numoutlets" : 1,
					"outlettype" : [ "" ],
					"patching_rect" : [ 340.0, 190.0, 150.0, 22.0 ]
				}

			}
, 			{
				"box" : 				{
					"attr" : "tex_map",
					"id" : "obj-16",
					"maxclass" : "attrui",
					"numinlets" : 1,
					"numoutlets" : 1,
					"outlettype" : [ "" ],
					"patching_rect" : [ 367.8125, 363.84375, 150.0, 22.0 ]
				}

			}
, 			{
				"box" : 				{
					"attr" : "freq",
					"id" : "obj-21",
					"maxclass" : "attrui",
					"numinlets" : 1,
					"numoutlets" : 1,
					"outlettype" : [ "" ],
					"patching_rect" : [ 767.0, 284.0, 150.0, 22.0 ]
				}

			}
, 			{
				"box" : 				{
					"attr" : "scale",
					"id" : "obj-47",
					"maxclass" : "attrui",
					"numinlets" : 1,
					"numoutlets" : 1,
					"outlettype" : [ "" ],
					"patching_rect" : [ 1181.000001788139343, 103.333330750465393, 150.0, 22.0 ]
				}

			}
, 			{
				"box" : 				{
					"attr" : "rotatexyz",
					"id" : "obj-48",
					"maxclass" : "attrui",
					"numinlets" : 1,
					"numoutlets" : 1,
					"outlettype" : [ "" ],
					"patching_rect" : [ 1245.666683554649353, 207.432441413402557, 370.000006556510925, 22.0 ]
				}

			}
, 			{
				"box" : 				{
					"attr" : "scale",
					"id" : "obj-53",
					"maxclass" : "attrui",
					"numinlets" : 1,
					"numoutlets" : 1,
					"outlettype" : [ "" ],
					"patching_rect" : [ 1520.000017881393433, 79.999994000000001, 150.0, 22.0 ]
				}

			}
, 			{
				"box" : 				{
					"attr" : "speed",
					"id" : "obj-54",
					"maxclass" : "attrui",
					"numinlets" : 1,
					"numoutlets" : 1,
					"outlettype" : [ "" ],
					"patching_rect" : [ 1673.000017881393433, 79.999994000000001, 150.0, 22.0 ]
				}

			}
, 			{
				"box" : 				{
					"attr" : "speed",
					"id" : "obj-56",
					"maxclass" : "attrui",
					"numinlets" : 1,
					"numoutlets" : 1,
					"outlettype" : [ "" ],
					"patching_rect" : [ 920.0, 284.0, 150.0, 22.0 ]
				}

			}
 ],
		"lines" : [ 			{
				"patchline" : 				{
					"destination" : [ "obj-57", 0 ],
					"order" : 0,
					"source" : [ "obj-1", 0 ]
				}

			}
, 			{
				"patchline" : 				{
					"destination" : [ "obj-67", 0 ],
					"order" : 1,
					"source" : [ "obj-1", 0 ]
				}

			}
, 			{
				"patchline" : 				{
					"destination" : [ "obj-6", 0 ],
					"source" : [ "obj-10", 0 ]
				}

			}
, 			{
				"patchline" : 				{
					"destination" : [ "obj-6", 0 ],
					"source" : [ "obj-12", 0 ]
				}

			}
, 			{
				"patchline" : 				{
					"destination" : [ "obj-28", 0 ],
					"source" : [ "obj-14", 0 ]
				}

			}
, 			{
				"patchline" : 				{
					"destination" : [ "obj-36", 0 ],
					"source" : [ "obj-15", 0 ]
				}

			}
, 			{
				"patchline" : 				{
					"destination" : [ "obj-6", 0 ],
					"source" : [ "obj-16", 0 ]
				}

			}
, 			{
				"patchline" : 				{
					"destination" : [ "obj-28", 0 ],
					"source" : [ "obj-17", 0 ]
				}

			}
, 			{
				"patchline" : 				{
					"destination" : [ "obj-12", 0 ],
					"source" : [ "obj-18", 0 ]
				}

			}
, 			{
				"patchline" : 				{
					"destination" : [ "obj-11", 0 ],
					"source" : [ "obj-2", 0 ]
				}

			}
, 			{
				"patchline" : 				{
					"destination" : [ "obj-43", 0 ],
					"source" : [ "obj-20", 0 ]
				}

			}
, 			{
				"patchline" : 				{
					"destination" : [ "obj-40", 0 ],
					"source" : [ "obj-21", 0 ]
				}

			}
, 			{
				"patchline" : 				{
					"destination" : [ "obj-1", 0 ],
					"source" : [ "obj-24", 0 ]
				}

			}
, 			{
				"patchline" : 				{
					"destination" : [ "obj-7", 1 ],
					"source" : [ "obj-28", 0 ]
				}

			}
, 			{
				"patchline" : 				{
					"destination" : [ "obj-1", 0 ],
					"source" : [ "obj-3", 0 ]
				}

			}
, 			{
				"patchline" : 				{
					"destination" : [ "obj-7", 2 ],
					"source" : [ "obj-36", 0 ]
				}

			}
, 			{
				"patchline" : 				{
					"destination" : [ "obj-6", 0 ],
					"source" : [ "obj-4", 0 ]
				}

			}
, 			{
				"patchline" : 				{
					"destination" : [ "obj-20", 3 ],
					"source" : [ "obj-40", 0 ]
				}

			}
, 			{
				"patchline" : 				{
					"destination" : [ "obj-11", 0 ],
					"order" : 1,
					"source" : [ "obj-43", 0 ]
				}

			}
, 			{
				"patchline" : 				{
					"destination" : [ "obj-58", 0 ],
					"order" : 0,
					"source" : [ "obj-43", 0 ]
				}

			}
, 			{
				"patchline" : 				{
					"destination" : [ "obj-36", 0 ],
					"source" : [ "obj-47", 0 ]
				}

			}
, 			{
				"patchline" : 				{
					"destination" : [ "obj-4", 0 ],
					"source" : [ "obj-48", 0 ]
				}

			}
, 			{
				"patchline" : 				{
					"destination" : [ "obj-48", 0 ],
					"source" : [ "obj-50", 0 ]
				}

			}
, 			{
				"patchline" : 				{
					"destination" : [ "obj-50", 0 ],
					"source" : [ "obj-52", 0 ]
				}

			}
, 			{
				"patchline" : 				{
					"destination" : [ "obj-50", 0 ],
					"source" : [ "obj-53", 0 ]
				}

			}
, 			{
				"patchline" : 				{
					"destination" : [ "obj-50", 0 ],
					"source" : [ "obj-54", 0 ]
				}

			}
, 			{
				"patchline" : 				{
					"destination" : [ "obj-40", 0 ],
					"source" : [ "obj-56", 0 ]
				}

			}
, 			{
				"patchline" : 				{
					"destination" : [ "obj-4", 0 ],
					"source" : [ "obj-7", 0 ]
				}

			}
, 			{
				"patchline" : 				{
					"destination" : [ "obj-7", 0 ],
					"source" : [ "obj-8", 0 ]
				}

			}
, 			{
				"patchline" : 				{
					"destination" : [ "obj-6", 0 ],
					"source" : [ "obj-9", 0 ]
				}

			}
 ],
		"parameters" : 		{
			"obj-20::obj-100" : [ "Speed", "Speed", 1 ],
			"obj-20::obj-104" : [ "pictctrl[148]", "pictctrl[1]", 0 ],
			"obj-20::obj-15" : [ "pictctrl[34]", "pictctrl[1]", 0 ],
			"obj-20::obj-17" : [ "pictctrl[31]", "pictctrl[1]", 0 ],
			"obj-20::obj-21" : [ "Colorize", "Colorize", 0 ],
			"obj-20::obj-23" : [ "pictctrl[33]", "pictctrl[1]", 0 ],
			"obj-20::obj-26" : [ "pictctrl[32]", "pictctrl[1]", 0 ],
			"obj-20::obj-278" : [ "textbutton[3]", "textbutton[1]", 0 ],
			"obj-20::obj-37" : [ "pictctrl[28]", "pictctrl[1]", 0 ],
			"obj-20::obj-46" : [ "pictctrl[27]", "pictctrl[1]", 0 ],
			"obj-20::obj-5" : [ "Function", "Function", 0 ],
			"obj-20::obj-55" : [ "Bcolorize", "Bcolorize", 0 ],
			"obj-20::obj-56" : [ "Gcolorize", "Gcolorize", 0 ],
			"obj-20::obj-57" : [ "Rcolorize", "Rcolorize", 0 ],
			"obj-20::obj-59" : [ "pictctrl[106]", "pictctrl[1]", 0 ],
			"obj-20::obj-61" : [ "Zoom hi", "Zoom", 1 ],
			"obj-20::obj-63" : [ "Zoom range[2]", "Zoom range", 1 ],
			"obj-20::obj-76" : [ "pictctrl[29]", "pictctrl[1]", 0 ],
			"obj-20::obj-78" : [ "Zoom lo", "Zoom", 1 ],
			"obj-20::obj-8" : [ "pictctrl[30]", "pictctrl[1]", 0 ],
			"obj-20::obj-85" : [ "pictctrl[4]", "pictctrl[1]", 0 ],
			"obj-20::obj-91::obj-10::obj-11" : [ "Jitter[2]", "Jitter", 0 ],
			"obj-20::obj-91::obj-10::obj-19" : [ "Amount", "Amount", 0 ],
			"obj-20::obj-91::obj-11::obj-11" : [ "Jitter[1]", "Jitter", 0 ],
			"obj-20::obj-91::obj-11::obj-18" : [ "Smoothing", "Smoothing", 0 ],
			"obj-20::obj-91::obj-12::obj-23" : [ "Gain[3]", "Gain", 0 ],
			"obj-20::obj-91::obj-12::obj-25" : [ "Offset[3]", "Offset", 0 ],
			"obj-20::obj-91::obj-12::obj-27" : [ "Lacunarity[3]", "Lacunarity", 0 ],
			"obj-20::obj-91::obj-12::obj-31" : [ "H value[3]", "H value", 0 ],
			"obj-20::obj-91::obj-13::obj-11" : [ "Jitter", "Jitter", 0 ],
			"obj-20::obj-91::obj-15::obj-11" : [ "H value[4]", "H value", 0 ],
			"obj-20::obj-91::obj-15::obj-16" : [ "Lacunarity[4]", "Lacunarity", 0 ],
			"obj-20::obj-91::obj-15::obj-18" : [ "Offset[4]", "Offset", 0 ],
			"obj-20::obj-91::obj-15::obj-19" : [ "Gain[4]", "Gain", 0 ],
			"obj-20::obj-91::obj-1::obj-24" : [ "Gain", "Gain", 0 ],
			"obj-20::obj-91::obj-1::obj-26" : [ "Offset", "Offset", 0 ],
			"obj-20::obj-91::obj-1::obj-28" : [ "Lacunarity", "Lacunarity", 0 ],
			"obj-20::obj-91::obj-1::obj-32" : [ "H value", "H value", 0 ],
			"obj-20::obj-91::obj-3::obj-11" : [ "Distortion", "Distortion", 0 ],
			"obj-20::obj-91::obj-4::obj-24" : [ "Gain[1]", "Gain", 0 ],
			"obj-20::obj-91::obj-4::obj-26" : [ "Offset[1]", "Offset", 0 ],
			"obj-20::obj-91::obj-4::obj-28" : [ "Lacunarity[1]", "Lacunarity", 0 ],
			"obj-20::obj-91::obj-4::obj-32" : [ "H value[1]", "H value", 0 ],
			"obj-20::obj-91::obj-5::obj-23" : [ "Gain[2]", "Gain", 0 ],
			"obj-20::obj-91::obj-5::obj-25" : [ "Offset[2]", "Offset", 0 ],
			"obj-20::obj-91::obj-5::obj-27" : [ "Lacunarity[2]", "Lacunarity", 0 ],
			"obj-20::obj-91::obj-5::obj-31" : [ "H value[2]", "H value", 0 ],
			"obj-20::obj-91::obj-6::obj-11" : [ "Jitter[4]", "Jitter", 0 ],
			"obj-20::obj-91::obj-6::obj-24" : [ "X crackle", "X crackle", 0 ],
			"obj-20::obj-91::obj-6::obj-28" : [ "Y crackle", "Y crackle", 0 ],
			"obj-20::obj-91::obj-6::obj-29" : [ "Z crackle", "Z crackle", 0 ],
			"obj-20::obj-91::obj-9::obj-11" : [ "Jitter[3]", "Jitter", 0 ],
			"obj-20::obj-91::obj-9::obj-16" : [ "Shading", "Shading", 0 ],
			"obj-20::obj-96" : [ "pictctrl[35]", "pictctrl[1]", 0 ],
			"obj-43::obj-1" : [ "Slide down", "Slide down", 0 ],
			"obj-43::obj-21" : [ "pictctrl[36]", "pictctrl[1]", 0 ],
			"obj-43::obj-28" : [ "pictctrl[3]", "pictctrl[1]", 0 ],
			"obj-43::obj-50" : [ "Slide up", "Slide up", 0 ],
			"obj-43::obj-56::obj-23" : [ "gswitch2[2]", "gswitch2", 0 ],
			"obj-43::obj-6" : [ "range[4]", "range", 0 ],
			"obj-67::obj-124" : [ "pictctrl[13]", "pictctrl[1]", 0 ],
			"obj-67::obj-22::obj-23" : [ "gswitch2[3]", "gswitch2", 0 ],
			"obj-67::obj-39" : [ "pictctrl[37]", "pictctrl[1]", 0 ],
			"obj-67::obj-40" : [ "number[2]", "number", 0 ],
			"obj-67::obj-61" : [ "Toggle record", "Toggle record", 0 ],
			"obj-67::obj-62" : [ "Codec", "Codec", 0 ],
			"parameterbanks" : 			{

			}
,
			"parameter_overrides" : 			{
				"obj-20::obj-91::obj-10::obj-11" : 				{
					"parameter_longname" : "Jitter[2]"
				}
,
				"obj-20::obj-91::obj-11::obj-11" : 				{
					"parameter_longname" : "Jitter[1]"
				}
,
				"obj-20::obj-91::obj-12::obj-23" : 				{
					"parameter_longname" : "Gain[3]"
				}
,
				"obj-20::obj-91::obj-12::obj-25" : 				{
					"parameter_longname" : "Offset[3]"
				}
,
				"obj-20::obj-91::obj-12::obj-27" : 				{
					"parameter_longname" : "Lacunarity[3]"
				}
,
				"obj-20::obj-91::obj-12::obj-31" : 				{
					"parameter_longname" : "H value[3]"
				}
,
				"obj-20::obj-91::obj-15::obj-11" : 				{
					"parameter_longname" : "H value[4]"
				}
,
				"obj-20::obj-91::obj-15::obj-16" : 				{
					"parameter_longname" : "Lacunarity[4]"
				}
,
				"obj-20::obj-91::obj-15::obj-18" : 				{
					"parameter_longname" : "Offset[4]"
				}
,
				"obj-20::obj-91::obj-15::obj-19" : 				{
					"parameter_longname" : "Gain[4]"
				}
,
				"obj-20::obj-91::obj-4::obj-24" : 				{
					"parameter_longname" : "Gain[1]"
				}
,
				"obj-20::obj-91::obj-4::obj-26" : 				{
					"parameter_longname" : "Offset[1]"
				}
,
				"obj-20::obj-91::obj-4::obj-28" : 				{
					"parameter_longname" : "Lacunarity[1]"
				}
,
				"obj-20::obj-91::obj-4::obj-32" : 				{
					"parameter_longname" : "H value[1]"
				}
,
				"obj-20::obj-91::obj-5::obj-23" : 				{
					"parameter_longname" : "Gain[2]"
				}
,
				"obj-20::obj-91::obj-5::obj-25" : 				{
					"parameter_longname" : "Offset[2]"
				}
,
				"obj-20::obj-91::obj-5::obj-27" : 				{
					"parameter_longname" : "Lacunarity[2]"
				}
,
				"obj-20::obj-91::obj-5::obj-31" : 				{
					"parameter_longname" : "H value[2]"
				}
,
				"obj-20::obj-91::obj-6::obj-11" : 				{
					"parameter_longname" : "Jitter[4]"
				}
,
				"obj-20::obj-91::obj-9::obj-11" : 				{
					"parameter_longname" : "Jitter[3]"
				}
,
				"obj-43::obj-21" : 				{
					"parameter_longname" : "pictctrl[36]"
				}
,
				"obj-67::obj-39" : 				{
					"parameter_longname" : "pictctrl[37]"
				}

			}
,
			"inherited_shortname" : 1
		}
,
		"dependency_cache" : [ 			{
				"name" : "Assignment5.maxsnap",
				"bootpath" : "~/Documents/Max 8/Snapshots",
				"patcherrelativepath" : "../../../Documents/Max 8/Snapshots",
				"type" : "mx@s",
				"implicit" : 1
			}
, 			{
				"name" : "vz.bfgener8r.maxpat",
				"bootpath" : "C74:/packages/Vizzie/patchers",
				"type" : "JSON",
				"implicit" : 1
			}
, 			{
				"name" : "data-handler-L.maxpat",
				"bootpath" : "C74:/packages/Vizzie/patchers/utils",
				"type" : "JSON",
				"implicit" : 1
			}
, 			{
				"name" : "vzgl-object.maxpat",
				"bootpath" : "C74:/packages/Vizzie/patchers/utils",
				"type" : "JSON",
				"implicit" : 1
			}
, 			{
				"name" : "vizzie-global.js",
				"bootpath" : "C74:/packages/Vizzie/code",
				"type" : "TEXT",
				"implicit" : 1
			}
, 			{
				"name" : "data-handler.maxpat",
				"bootpath" : "C74:/packages/Vizzie/patchers/utils",
				"type" : "JSON",
				"implicit" : 1
			}
, 			{
				"name" : "bfgenerator_UI.maxpat",
				"bootpath" : "C74:/packages/Vizzie/patchers/bfg",
				"type" : "JSON",
				"implicit" : 1
			}
, 			{
				"name" : "distorted_controls.maxpat",
				"bootpath" : "C74:/packages/Vizzie/patchers/bfg",
				"type" : "JSON",
				"implicit" : 1
			}
, 			{
				"name" : "noise_voronoi_controls.maxpat",
				"bootpath" : "C74:/packages/Vizzie/patchers/bfg",
				"type" : "JSON",
				"implicit" : 1
			}
, 			{
				"name" : "noise_voronoi_smooth_controls.maxpat",
				"bootpath" : "C74:/packages/Vizzie/patchers/bfg",
				"type" : "JSON",
				"implicit" : 1
			}
, 			{
				"name" : "noise_voronoise_controls.maxpat",
				"bootpath" : "C74:/packages/Vizzie/patchers/bfg",
				"type" : "JSON",
				"implicit" : 1
			}
, 			{
				"name" : "noise_voronoi_id_controls.maxpat",
				"bootpath" : "C74:/packages/Vizzie/patchers/bfg",
				"type" : "JSON",
				"implicit" : 1
			}
, 			{
				"name" : "noise_voronoi_crackle_controls.maxpat",
				"bootpath" : "C74:/packages/Vizzie/patchers/bfg",
				"type" : "JSON",
				"implicit" : 1
			}
, 			{
				"name" : "fractal_rigid_controls.maxpat",
				"bootpath" : "C74:/packages/Vizzie/patchers/bfg",
				"type" : "JSON",
				"implicit" : 1
			}
, 			{
				"name" : "fractal_hybrid_controls.maxpat",
				"bootpath" : "C74:/packages/Vizzie/patchers/bfg",
				"type" : "JSON",
				"implicit" : 1
			}
, 			{
				"name" : "fractal_fbm_controls.maxpat",
				"bootpath" : "C74:/packages/Vizzie/patchers/bfg",
				"type" : "JSON",
				"implicit" : 1
			}
, 			{
				"name" : "fractal_multi_controls.maxpat",
				"bootpath" : "C74:/packages/Vizzie/patchers/bfg",
				"type" : "JSON",
				"implicit" : 1
			}
, 			{
				"name" : "fractal_hetero_controls.maxpat",
				"bootpath" : "C74:/packages/Vizzie/patchers/bfg",
				"type" : "JSON",
				"implicit" : 1
			}
, 			{
				"name" : "vzgl-blackframe.maxpat",
				"bootpath" : "C74:/packages/Vizzie/patchers/utils",
				"type" : "JSON",
				"implicit" : 1
			}
, 			{
				"name" : "vzgl-outputdim.maxpat",
				"bootpath" : "C74:/packages/Vizzie/patchers/utils",
				"type" : "JSON",
				"implicit" : 1
			}
, 			{
				"name" : "lo_hi_UI_control.maxpat",
				"bootpath" : "C74:/packages/Vizzie/patchers/utils",
				"type" : "JSON",
				"implicit" : 1
			}
, 			{
				"name" : "exact_menu.maxpat",
				"bootpath" : "C74:/packages/Vizzie/patchers/utils",
				"type" : "JSON",
				"implicit" : 1
			}
, 			{
				"name" : "vz.slidr.maxpat",
				"bootpath" : "C74:/packages/Vizzie/patchers",
				"type" : "JSON",
				"implicit" : 1
			}
, 			{
				"name" : "video-handler.maxpat",
				"bootpath" : "C74:/packages/Vizzie/patchers/utils",
				"type" : "JSON",
				"implicit" : 1
			}
, 			{
				"name" : "vz.recordr.maxpat",
				"bootpath" : "C74:/packages/Vizzie/patchers",
				"type" : "JSON",
				"implicit" : 1
			}
, 			{
				"name" : "jit.mo.join.mxo",
				"type" : "iLaX"
			}
, 			{
				"name" : "jit.mo.func.mxo",
				"type" : "iLaX"
			}
, 			{
				"name" : "jit.mo.time.mxo",
				"type" : "iLaX"
			}
 ],
		"autosave" : 0,
		"snapshot" : 		{
			"filetype" : "C74Snapshot",
			"version" : 2,
			"minorversion" : 0,
			"name" : "snapshotlist",
			"origin" : "jpatcher",
			"type" : "list",
			"subtype" : "Undefined",
			"embed" : 1,
			"snapshot" : 			{
				"valuedictionary" : 				{
					"parameter_values" : 					{
						"Amount" : 0.0,
						"Bcolorize" : 1.874015748031497,
						"Colorize" : 1.0,
						"Distortion" : 1.0,
						"Function" : 6.0,
						"Gain" : 1.5,
						"Gain[1]" : 0.0,
						"Gain[2]" : 1.102362204724411,
						"Gain[3]" : 0.0,
						"Gain[4]" : 0.0,
						"Gcolorize" : 1.763779527559056,
						"H value" : 0.25,
						"H value[1]" : 0.25,
						"H value[2]" : 0.314960629921261,
						"H value[3]" : 1.5,
						"H value[4]" : 0.5,
						"Jitter" : 0.5,
						"Jitter[1]" : 0.334645669291339,
						"Jitter[2]" : 0.5,
						"Jitter[3]" : 0.5,
						"Jitter[4]" : 0.0,
						"Lacunarity" : 2.0,
						"Lacunarity[1]" : 3.0,
						"Lacunarity[2]" : 2.330708661417331,
						"Lacunarity[3]" : 1.5,
						"Lacunarity[4]" : 2.0,
						"Offset" : 0.9,
						"Offset[1]" : 0.25,
						"Offset[2]" : 0.440944881889764,
						"Offset[3]" : 1.5,
						"Offset[4]" : 0.05,
						"Rcolorize" : 0.897637795275592,
						"Shading" : 0.5,
						"Slide down" : 6.0,
						"Slide up" : 8.0,
						"Smoothing" : 9.574803149606311,
						"X crackle" : 8.0,
						"Y crackle" : 2.0,
						"Z crackle" : 0.5,
						"gswitch2[2]" : 1.0,
						"Speed" : 5.445853855159087,
						"Zoom hi" : 0.244094488188978,
						"Zoom lo" : -2.0,
						"blob" : 						{
							"range[4]" : [ 1 ],
							"textbutton[3]" : [ 1 ],
							"Zoom range[2]" : [ 1 ]
						}

					}

				}

			}
,
			"snapshotlist" : 			{
				"current_snapshot" : 0,
				"entries" : [ 					{
						"filetype" : "C74Snapshot",
						"version" : 2,
						"minorversion" : 0,
						"name" : "Assignment5",
						"origin" : "Assignment5",
						"type" : "patcher",
						"subtype" : "Undefined",
						"embed" : 1,
						"snapshot" : 						{
							"valuedictionary" : 							{
								"parameter_values" : 								{
									"Amount" : 0.0,
									"Bcolorize" : 1.874015748031497,
									"Colorize" : 1.0,
									"Distortion" : 1.0,
									"Function" : 6.0,
									"Gain" : 1.5,
									"Gain[1]" : 0.0,
									"Gain[2]" : 1.102362204724411,
									"Gain[3]" : 0.0,
									"Gain[4]" : 0.0,
									"Gcolorize" : 1.763779527559056,
									"H value" : 0.25,
									"H value[1]" : 0.25,
									"H value[2]" : 0.314960629921261,
									"H value[3]" : 1.5,
									"H value[4]" : 0.5,
									"Jitter" : 0.5,
									"Jitter[1]" : 0.334645669291339,
									"Jitter[2]" : 0.5,
									"Jitter[3]" : 0.5,
									"Jitter[4]" : 0.0,
									"Lacunarity" : 2.0,
									"Lacunarity[1]" : 3.0,
									"Lacunarity[2]" : 2.330708661417331,
									"Lacunarity[3]" : 1.5,
									"Lacunarity[4]" : 2.0,
									"Offset" : 0.9,
									"Offset[1]" : 0.25,
									"Offset[2]" : 0.440944881889764,
									"Offset[3]" : 1.5,
									"Offset[4]" : 0.05,
									"Rcolorize" : 0.897637795275592,
									"Shading" : 0.5,
									"Slide down" : 6.0,
									"Slide up" : 8.0,
									"Smoothing" : 9.574803149606311,
									"X crackle" : 8.0,
									"Y crackle" : 2.0,
									"Z crackle" : 0.5,
									"gswitch2[2]" : 1.0,
									"Speed" : 5.445853855159087,
									"Zoom hi" : 0.244094488188978,
									"Zoom lo" : -2.0,
									"blob" : 									{
										"range[4]" : [ 1 ],
										"textbutton[3]" : [ 1 ],
										"Zoom range[2]" : [ 1 ]
									}

								}

							}

						}
,
						"fileref" : 						{
							"name" : "Assignment5",
							"filename" : "Assignment5.maxsnap",
							"filepath" : "~/Documents/Max 8/Snapshots",
							"filepos" : -1,
							"snapshotfileid" : "1a94f34ac91130e9e9b3c2cd1015c2cf"
						}

					}
 ]
			}

		}

	}

}
